<?xml version="1.0" encoding="UTF-8"?>
<svg width="70px" height="23px" viewBox="0 0 70 23" version="1.1" xmlns="http://www.w3.org/2000/svg" xmlns:xlink="http://www.w3.org/1999/xlink">
    <!-- Generator: Sketch 53.1 (72631) - https://sketchapp.com -->
    <title>photon</title>
    <desc>Created with Sketch.</desc>
    <g id="Page-1" stroke="none" stroke-width="1" fill="none" fill-rule="evenodd">
        <path d="M4.3,15.05 C4.91666975,15.6833365 5.758328,16 6.825,16 C7.891672,16 8.66666425,15.6416702 9.15,14.925 C9.63333575,14.2083297 9.875,13.1333405 9.875,11.7 L9.875,11.65 C9.875,10.2333263 9.641669,9.1750035 9.175,8.475 C8.708331,7.7749965 7.93333875,7.425 6.85,7.425 C5.79999475,7.425 4.96250313,7.7416635 4.3375,8.375 C3.71249688,9.0083365 3.4,9.83332825 3.4,10.85 L3.4,12.625 C3.4,13.5916715 3.699997,14.3999968 4.3,15.05 Z M7.575,18.3 C6.5416615,18.3 5.6750035,18.100002 4.975,17.7 C4.2749965,17.299998 3.76666825,16.7916697 3.45,16.175 L3.4,16.175 L3.4,22.25 L0.625,22.25 L0.625,5.4 L3.325,5.4 L3.4,7.275 L3.45,7.275 C3.716668,6.7083305 4.216663,6.20416888 4.95,5.7625 C5.683337,5.32083113 6.549995,5.1 7.55,5.1 C9.20000825,5.1 10.4708289,5.67916087 11.3625,6.8375 C12.2541711,7.99583912 12.7,9.59998975 12.7,11.65 L12.7,11.7 C12.7,13.8166772 12.2458379,15.4458276 11.3375,16.5875 C10.4291621,17.7291724 9.175008,18.3 7.575,18.3 Z M13.975,18 L13.975,0.75 L16.75,0.75 L16.75,7.275 L16.8,7.275 C17.1000015,6.65833025 17.5874966,6.14166875 18.2625,5.725 C18.9375034,5.30833125 19.7833282,5.1 20.8,5.1 C22.200007,5.1 23.2249967,5.47499625 23.875,6.225 C24.5250033,6.97500375 24.85,8.1666585 24.85,9.8 L24.85,18 L22.05,18 L22.05,9.8 C22.05,8.98332925 21.8958349,8.40000175 21.5875,8.05 C21.2791651,7.69999825 20.758337,7.525 20.025,7.525 C18.9416613,7.525 18.1250028,7.83333025 17.575,8.45 C17.0249972,9.06666975 16.75,9.841662 16.75,10.775 L16.75,18 L13.975,18 Z M27.425,6.8 C28.425005,5.666661 29.9083235,5.1 31.875,5.1 C33.8416765,5.1 35.3208284,5.666661 36.3125,6.8 C37.3041716,7.933339 37.8,9.55832275 37.8,11.675 L37.8,11.725 C37.8,13.8416772 37.3041716,15.4708276 36.3125,16.6125 C35.3208284,17.7541724 33.8416765,18.325 31.875,18.325 C29.9083235,18.325 28.4291716,17.7541724 27.4375,16.6125 C26.4458284,15.4708276 25.95,13.8416772 25.95,11.725 L25.95,11.675 C25.95,9.55832275 26.4416617,7.933339 27.425,6.8 Z M31.875,16 C33.9583438,16 35,14.5750142 35,11.725 L35,11.675 C35,8.8416525 33.9583438,7.425 31.875,7.425 C29.808323,7.425 28.775,8.8416525 28.775,11.675 L28.775,11.725 C28.775,14.5750142 29.808323,16 31.875,16 Z M45.5,7.675 L42.325,7.675 L42.325,14.5 C42.325,15.0000025 42.4333323,15.349999 42.65,15.55 C42.8666678,15.750001 43.241664,15.85 43.775,15.85 C44.308336,15.85 44.9166633,15.7750008 45.6,15.625 L45.6,17.85 C44.799996,18.1000012 43.9750042,18.225 43.125,18.225 C41.8916605,18.225 40.9875029,17.958336 40.4125,17.425 C39.8374971,16.891664 39.55,15.9666732 39.55,14.65 L39.55,7.675 L37.825,7.675 L37.825,5.4 L39.625,5.4 L39.825,1.8 L42.325,1.8 L42.325,5.4 L45.5,5.4 L45.5,7.675 Z M47.375,6.8 C48.375005,5.666661 49.8583235,5.1 51.825,5.1 C53.7916765,5.1 55.2708284,5.666661 56.2625,6.8 C57.2541716,7.933339 57.75,9.55832275 57.75,11.675 L57.75,11.725 C57.75,13.8416772 57.2541716,15.4708276 56.2625,16.6125 C55.2708284,17.7541724 53.7916765,18.325 51.825,18.325 C49.8583235,18.325 48.3791716,17.7541724 47.3875,16.6125 C46.3958284,15.4708276 45.9,13.8416772 45.9,11.725 L45.9,11.675 C45.9,9.55832275 46.3916618,7.933339 47.375,6.8 Z M51.825,16 C53.9083437,16 54.95,14.5750142 54.95,11.725 L54.95,11.675 C54.95,8.8416525 53.9083437,7.425 51.825,7.425 C49.758323,7.425 48.725,8.8416525 48.725,11.675 L48.725,11.725 C48.725,14.5750142 49.758323,16 51.825,16 Z M58.95,18 L58.95,5.4 L61.65,5.4 L61.725,7.3 L61.775,7.3 C62.0916682,6.68333025 62.58333,6.16250212 63.25,5.7375 C63.91667,5.31249787 64.7583282,5.1 65.775,5.1 C67.175007,5.1 68.1999967,5.47499625 68.85,6.225 C69.5000032,6.97500375 69.825,8.1666585 69.825,9.8 L69.825,18 L67.025,18 L67.025,9.8 C67.025,8.98332925 66.8708349,8.40000175 66.5625,8.05 C66.2541651,7.69999825 65.733337,7.525 65,7.525 C63.9166613,7.525 63.1000028,7.83333025 62.55,8.45 C61.9999972,9.06666975 61.725,9.84999525 61.725,10.8 L61.725,18 L58.95,18 Z" id="photon" fill="#000000" fill-rule="nonzero"></path>
    </g>
</svg>