<?xml version="1.0" encoding="UTF-8"?>
<svg width="72px" height="18px" viewBox="0 0 72 18" version="1.1" xmlns="http://www.w3.org/2000/svg" xmlns:xlink="http://www.w3.org/1999/xlink">
    <!-- Generator: Sketch 53.1 (72631) - https://sketchapp.com -->
    <title>toaster</title>
    <desc>Created with Sketch.</desc>
    <g id="Page-1" stroke="none" stroke-width="1" fill="none" fill-rule="evenodd">
        <path d="M8.4,6.675 L5.225,6.675 L5.225,13.5 C5.225,14.0000025 5.33333225,14.349999 5.55,14.55 C5.76666775,14.750001 6.141664,14.85 6.675,14.85 C7.208336,14.85 7.81666325,14.7750008 8.5,14.625 L8.5,16.85 C7.699996,17.1000012 6.87500425,17.225 6.025,17.225 C4.7916605,17.225 3.88750287,16.958336 3.3125,16.425 C2.73749713,15.891664 2.45,14.9666732 2.45,13.65 L2.45,6.675 L0.725,6.675 L0.725,4.4 L2.525,4.4 L2.725,0.8 L5.225,0.8 L5.225,4.4 L8.4,4.4 L8.4,6.675 Z M10.275,5.8 C11.275005,4.666661 12.7583235,4.1 14.725,4.1 C16.6916765,4.1 18.1708284,4.666661 19.1625,5.8 C20.1541716,6.933339 20.65,8.55832275 20.65,10.675 L20.65,10.725 C20.65,12.8416772 20.1541716,14.4708276 19.1625,15.6125 C18.1708284,16.7541724 16.6916765,17.325 14.725,17.325 C12.7583235,17.325 11.2791716,16.7541724 10.2875,15.6125 C9.29582837,14.4708276 8.8,12.8416772 8.8,10.725 L8.8,10.675 C8.8,8.55832275 9.29166175,6.933339 10.275,5.8 Z M14.725,15 C16.8083438,15 17.85,13.5750142 17.85,10.725 L17.85,10.675 C17.85,7.8416525 16.8083438,6.425 14.725,6.425 C12.658323,6.425 11.625,7.8416525 11.625,10.675 L11.625,10.725 C11.625,13.5750142 12.658323,15 14.725,15 Z M29.5,12.15 L29.5,11.15 L27.35,11.35 C26.1333272,11.4666672 25.258336,11.6624986 24.725,11.9375 C24.191664,12.2125014 23.925,12.716663 23.925,13.45 L23.925,13.5 C23.925,14.033336 24.0958316,14.4416653 24.4375,14.725 C24.7791684,15.0083348 25.249997,15.15 25.85,15.15 C26.9500055,15.15 27.83333,14.8625029 28.5,14.2875 C29.16667,13.7124971 29.5,13.0000042 29.5,12.15 Z M24.575,8.175 L21.85,8.175 C21.9000003,6.89166025 22.3708289,5.89583687 23.2625,5.1875 C24.1541711,4.47916313 25.4749913,4.125 27.225,4.125 C30.55835,4.125 32.225,5.524986 32.225,8.325 L32.225,17 L29.7,17 L29.625,15.225 L29.575,15.225 C29.2249982,15.8416698 28.6791704,16.3416647 27.9375,16.725 C27.1958296,17.1083352 26.3416715,17.3 25.375,17.3 C24.108327,17.3 23.0958371,17.000003 22.3375,16.4 C21.5791629,15.799997 21.2,14.8833395 21.2,13.65 L21.2,13.6 C21.2,12.9666635 21.3041656,12.416669 21.5125,11.95 C21.7208344,11.483331 21.991665,11.1083348 22.325,10.825 C22.658335,10.5416653 23.091664,10.3083343 23.625,10.125 C24.158336,9.94166575 24.6749975,9.80833375 25.175,9.725 C25.6750025,9.64166625 26.2749965,9.566667 26.975,9.5 L29.475,9.275 L29.475,8.325 C29.475,7.65833 29.308335,7.16250163 28.975,6.8375 C28.641665,6.51249837 28.0583375,6.35 27.225,6.35 C25.5249915,6.35 24.641667,6.95832725 24.575,8.175 Z M38.775,15.1 C40.441675,15.1 41.275,14.5583387 41.275,13.475 L41.275,13.425 C41.275,12.958331 41.0916685,12.6000012 40.725,12.35 C40.3583315,12.0999988 39.7916705,11.9250005 39.025,11.825 L37.8,11.675 C36.3499928,11.5083325 35.2625036,11.1375029 34.5375,10.5625 C33.8124964,9.98749713 33.45,9.0833395 33.45,7.85 L33.45,7.8 C33.45,6.599994 33.8791624,5.6833365 34.7375,5.05 C35.5958376,4.4166635 36.8666583,4.1 38.55,4.1 C41.8333498,4.1 43.5583325,5.37498725 43.725,7.925 L41.025,7.925 C40.9916665,7.34166375 40.775002,6.92500125 40.375,6.675 C39.974998,6.42499875 39.3666708,6.3 38.55,6.3 C36.949992,6.3 36.15,6.7833285 36.15,7.75 L36.15,7.8 C36.15,8.266669 36.3333315,8.62083212 36.7,8.8625 C37.0666685,9.10416788 37.6666625,9.2749995 38.5,9.375 L39.65,9.525 C41.1500075,9.74166775 42.2458299,10.1374971 42.9375,10.7125 C43.6291701,11.2875029 43.975,12.1999937 43.975,13.45 L43.975,13.5 C43.975,16.0500127 42.2166843,17.325 38.7,17.325 C35.0499818,17.325 33.191667,15.9416805 33.125,13.175 L35.85,13.175 C35.8833335,13.8083365 36.1624974,14.2874984 36.6875,14.6125 C37.2125026,14.9375016 37.908329,15.1 38.775,15.1 Z M51.925,6.675 L48.75,6.675 L48.75,13.5 C48.75,14.0000025 48.8583322,14.349999 49.075,14.55 C49.2916677,14.750001 49.666664,14.85 50.2,14.85 C50.733336,14.85 51.3416633,14.7750008 52.025,14.625 L52.025,16.85 C51.224996,17.1000012 50.4000042,17.225 49.55,17.225 C48.3166605,17.225 47.4125029,16.958336 46.8375,16.425 C46.2624971,15.891664 45.975,14.9666732 45.975,13.65 L45.975,6.675 L44.25,6.675 L44.25,4.4 L46.05,4.4 L46.25,0.8 L48.75,0.8 L48.75,4.4 L51.925,4.4 L51.925,6.675 Z M59.075,15.05 C60.275006,15.05 61.608326,14.7916693 63.075,14.275 L63.075,16.525 C61.7749935,17.058336 60.3750075,17.325 58.875,17.325 C56.5916553,17.325 54.9250053,16.7750055 53.875,15.675 C52.8249947,14.5749945 52.3,12.925011 52.3,10.725 L52.3,10.675 C52.3,8.5749895 52.8083282,6.95417237 53.825,5.8125 C54.8416717,4.67082763 56.3249902,4.1 58.275,4.1 C61.9083515,4.1 63.725,6.09164675 63.725,10.075 C63.725,10.541669 63.6750005,11.0916635 63.575,11.725 L55,11.725 C55.0333335,12.8750058 55.3708301,13.716664 56.0125,14.25 C56.6541699,14.783336 57.674993,15.05 59.075,15.05 Z M60.45,7.15 C60.0333313,6.5833305 59.3000053,6.3 58.25,6.3 C57.1999948,6.3 56.4166692,6.57916387 55.9,7.1375 C55.3833308,7.69583613 55.0833338,8.5583275 55,9.725 L61.1,9.725 C61.0833333,8.5583275 60.8666688,7.70000275 60.45,7.15 Z M64.825,17 L64.825,4.4 L67.55,4.4 L67.6,6.725 L67.65,6.725 C67.9000013,5.9583295 68.3541634,5.31666925 69.0125,4.8 C69.6708366,4.28333075 70.5749943,4.06666625 71.725,4.15 L71.725,6.9 C70.258326,6.9 69.2041699,7.20416362 68.5625,7.8125 C67.9208301,8.42083638 67.6,9.424993 67.6,10.825 L67.6,17 L64.825,17 Z" id="toaster" fill="#000000" fill-rule="nonzero"></path>
    </g>
</svg>